<svg xmlns="http://www.w3.org/2000/svg" viewBox="0 0 100 100">
  <rect width="100" height="100" rx="25" fill="#FFF9F2"/>
  <g transform="translate(0, 5)">
    <path d="M38 42 Q20 0, 32 15 Q38 25, 38 42 Z" fill="#FFC1CC"/>
    <path d="M35 38 Q25 10, 31 20 Q35 28, 35 38 Z" fill="#FFF0F0"/>
    <path d="M62 42 Q80 0, 68 15 Q62 25, 62 42 Z" fill="#FFC1CC"/>
    <path d="M65 38 Q75 10, 69 20 Q65 28, 65 38 Z" fill="#FFF0F0"/>
    <ellipse cx="50" cy="58" rx="25" ry="22" fill="#FFFFFF" stroke="#FFDAB9" stroke-width="2"/>
    <circle cx="33" cy="62" r="4" fill="#FFC1CC" opacity="0.8"/>
    <circle cx="67" cy="62" r="4" fill="#FFC1CC" opacity="0.8"/>
    <circle cx="40" cy="56" r="2.5" fill="#6B4F4F"/>
    <circle cx="60" cy="56" r="2.5" fill="#6B4F4F"/>
    <polygon points="48,60 52,60 50,62" fill="#FF91A4"/>
    <path d="M47 64 Q50 67, 53 64" stroke="#6B4F4F" stroke-width="1.5" fill="none"/>
  </g>
</svg>
